<?xml version="1.0" encoding="UTF-8" standalone="no"?>
<svg
  height="24px"
  viewBox="0 -960 960 960"
  width="24px"
  fill="#dbe3eb"
  version="1.1"
  id="svg1"
  sodipodi:docname="eye.svg"
  inkscape:version="1.3.2 (091e20e, 2023-11-25, custom)"
  xmlns:inkscape="http://www.inkscape.org/namespaces/inkscape"
  xmlns:sodipodi="http://sodipodi.sourceforge.net/DTD/sodipodi-0.dtd"
  xmlns="http://www.w3.org/2000/svg"
  xmlns:svg="http://www.w3.org/2000/svg">
  <defs
    id="defs1" />
  <sodipodi:namedview
    id="namedview1"
    pagecolor="#ffffff"
    bordercolor="#000000"
    borderopacity="0.25"
    inkscape:showpageshadow="2"
    inkscape:pageopacity="0.0"
    inkscape:pagecheckerboard="0"
    inkscape:deskcolor="#d1d1d1"
    inkscape:zoom="45.254834"
    inkscape:cx="9.8773978"
    inkscape:cy="10.816524"
    inkscape:window-width="1920"
    inkscape:window-height="1009"
    inkscape:window-x="1912"
    inkscape:window-y="46"
    inkscape:window-maximized="1"
    inkscape:current-layer="svg1" />
  <path
    d="m 480,-332.73825 c 47.00349,0 86.95646,-16.32233 119.85891,-48.96697 32.90245,-32.64465 49.35366,-72.28458 49.35366,-118.91978 0,-46.6352 -16.45121,-86.27513 -49.35366,-118.91978 -32.90245,-32.64464 -72.85542,-48.96697 -119.85891,-48.96697 -47.00349,0 -86.95646,16.32233 -119.85891,48.96697 -32.90245,32.64465 -49.35366,72.28458 -49.35366,118.91978 0,46.6352 16.45121,86.27513 49.35366,118.91978 32.90245,32.64464 72.85542,48.96697 119.85891,48.96697 z M 480,-392 c -30,0 -55.5,-10.5 -76.5,-31.5 -21,-21 -31.5,-46.5 -31.5,-76.5 0,-30 10.5,-55.5 31.5,-76.5 21,-21 46.5,-31.5 76.5,-31.5 30,0 55.5,10.5 76.5,31.5 21,21 31.5,46.5 31.5,76.5 0,30 -10.5,55.5 -31.5,76.5 -21,21 -46.5,31.5 -76.5,31.5 z m 0,192 c -97.33333,0 -186,-27.16667 -266,-81.5 C 134,-335.83333 76,-408.66667 40,-500 c 36,-91.33333 94,-164.16667 174,-218.5 80,-54.33333 168.66667,-81.5 266,-81.5 97.33333,0 186,27.16667 266,81.5 80,54.33333 138,127.16667 174,218.5 -36,91.33333 -94,164.16667 -174,218.5 -80,54.33333 -168.66667,81.5 -266,81.5 z m 0,-53.56155 c 80.75092,0 154.89171,-22.2168 222.42237,-66.6504 C 769.95301,-364.64555 821.58359,-424.5749 857.31408,-500 821.58359,-575.4251 769.95301,-635.35445 702.42237,-679.78805 634.89171,-724.22165 560.75092,-746.43845 480,-746.43845 c -80.75092,0 -154.89171,22.2168 -222.42237,66.6504 -67.53064,44.4336 -119.16122,104.36295 -154.89171,179.78805 35.73049,75.4251 87.36107,135.35445 154.89171,179.78805 67.53066,44.4336 141.67145,66.6504 222.42237,66.6504 z"
    id="path1"
    sodipodi:nodetypes="sssssssssssssssssssscssscsssscssscss" />
</svg>
